<svg xmlns="http://www.w3.org/2000/svg" version="1.1" xmlns:xlink="http://www.w3.org/1999/xlink" xmlns:svgjs="http://svgjs.com/svgjs" width="1440" height="560" preserveAspectRatio="none" viewBox="0 0 1440 560"><g mask="url(&quot;#SvgjsMask1028&quot;)" fill="none"><rect width="1440" height="560" x="0" y="0" fill="#0e2a47"></rect><path d="M29.275,97.29C53.925,95.205,75.898,83.822,89.534,63.182C104.977,39.807,116.437,10.415,102.864,-14.094C89.007,-39.115,57.837,-47.135,29.275,-45.626C3.435,-44.261,-17.565,-28.463,-31.973,-6.97C-48.768,18.084,-66.952,49.121,-51.674,75.128C-36.486,100.982,-0.603,99.818,29.275,97.29" fill="rgba(28, 83, 142, 0.4)" class="triangle-float1"></path><path d="M987.021585450503 183.25650093635733L831.3337397578338 120.18186773491821 849.2290960489049 265.9278488214368z" fill="rgba(28, 83, 142, 0.4)" class="triangle-float3"></path><path d="M292.789947470039-1.9200754589202162L356.88350485145315 69.26303148880135 428.0666117991747 5.169474107387195 363.9730544177606-66.01363284033437z" fill="rgba(28, 83, 142, 0.4)" class="triangle-float2"></path><path d="M44.1 334.03 a108.84 108.84 0 1 0 217.68 0 a108.84 108.84 0 1 0 -217.68 0z" fill="rgba(28, 83, 142, 0.4)" class="triangle-float2"></path><path d="M737.74 389.24 a103.9 103.9 0 1 0 207.8 0 a103.9 103.9 0 1 0 -207.8 0z" fill="rgba(28, 83, 142, 0.4)" class="triangle-float2"></path><path d="M331.4856965783664 264.2538868860028L429.93870075445295 296.2432070961139 428.6961789815763 132.56904072692862z" fill="rgba(28, 83, 142, 0.4)" class="triangle-float3"></path><path d="M146.00342897969324 496.7188619121508L46.77436623834636 454.59862374236627 103.8831908099087 595.9479246534977z" fill="rgba(28, 83, 142, 0.4)" class="triangle-float3"></path><path d="M803.152734125791 377.57523441564206L874.990877375652 497.39248704028904 936.0520190393563 391.6314873105923z" fill="rgba(28, 83, 142, 0.4)" class="triangle-float2"></path><path d="M990.2723493518381 303.4231306281574L899.3915687146014 411.73062745035065 1007.6990655367946 502.61140808758745 1098.5798461740314 394.3039112653942z" fill="rgba(28, 83, 142, 0.4)" class="triangle-float3"></path><path d="M176.924,576.216C212.537,578.201,245.681,556.329,262.572,524.914C278.656,495,272.431,459.543,255.477,430.113C238.49,400.626,210.935,377.368,176.924,376.241C141.034,375.051,104.968,392.523,88.802,424.588C73.798,454.348,89.613,487.391,106.36,516.206C122.989,544.819,143.881,574.374,176.924,576.216" fill="rgba(28, 83, 142, 0.4)" class="triangle-float3"></path><path d="M966.1260311683623 67.68155350636175L1058.522374359239 77.3928004987838 975.8372781607843-24.71478968451497z" fill="rgba(28, 83, 142, 0.4)" class="triangle-float2"></path><path d="M1106.21 182.28 a157.67 157.67 0 1 0 315.34 0 a157.67 157.67 0 1 0 -315.34 0z" fill="rgba(28, 83, 142, 0.4)" class="triangle-float1"></path><path d="M-79.53225211927655 494.39738687992383L99.87325821341481 546.0261753082557 63.16272894665791 387.01540345709594z" fill="rgba(28, 83, 142, 0.4)" class="triangle-float3"></path></g><defs><mask id="SvgjsMask1028"><rect width="1440" height="560" fill="#ffffff"></rect></mask><style>
            @keyframes float1 {
                0%{transform: translate(0, 0)}
                50%{transform: translate(-10px, 0)}
                100%{transform: translate(0, 0)}
            }

            .triangle-float1 {
                animation: float1 5s infinite;
            }

            @keyframes float2 {
                0%{transform: translate(0, 0)}
                50%{transform: translate(-5px, -5px)}
                100%{transform: translate(0, 0)}
            }

            .triangle-float2 {
                animation: float2 4s infinite;
            }

            @keyframes float3 {
                0%{transform: translate(0, 0)}
                50%{transform: translate(0, -10px)}
                100%{transform: translate(0, 0)}
            }

            .triangle-float3 {
                animation: float3 6s infinite;
            }
        </style></defs></svg>